<mxfile host="app.diagrams.net" modified="2024-04-25T15:50:21.095Z" agent="Mozilla/5.0 (Windows NT 10.0; Win64; x64) AppleWebKit/537.36 (KHTML, like Gecko) Chrome/123.0.0.0 Safari/537.36" etag="XUwFvFZej-mzsdr4nDom" version="24.2.8" type="device">
  <diagram name="Page-1" id="OHE8sVTaAEBIKXPYtCOI">
    <mxGraphModel dx="1461" dy="725" grid="1" gridSize="10" guides="1" tooltips="1" connect="1" arrows="1" fold="1" page="1" pageScale="1" pageWidth="850" pageHeight="1100" math="0" shadow="0">
      <root>
        <mxCell id="0" />
        <mxCell id="1" parent="0" />
        <mxCell id="znSg9ff7FZtxbK_ijgmJ-3" value="" style="edgeStyle=orthogonalEdgeStyle;rounded=0;orthogonalLoop=1;jettySize=auto;html=1;" edge="1" parent="1" source="znSg9ff7FZtxbK_ijgmJ-1" target="znSg9ff7FZtxbK_ijgmJ-2">
          <mxGeometry relative="1" as="geometry" />
        </mxCell>
        <mxCell id="znSg9ff7FZtxbK_ijgmJ-1" value="Pick up phone from top" style="rounded=1;whiteSpace=wrap;html=1;" vertex="1" parent="1">
          <mxGeometry x="80" y="200" width="120" height="60" as="geometry" />
        </mxCell>
        <mxCell id="znSg9ff7FZtxbK_ijgmJ-5" value="" style="edgeStyle=orthogonalEdgeStyle;rounded=0;orthogonalLoop=1;jettySize=auto;html=1;" edge="1" parent="1" source="znSg9ff7FZtxbK_ijgmJ-2" target="znSg9ff7FZtxbK_ijgmJ-4">
          <mxGeometry relative="1" as="geometry" />
        </mxCell>
        <mxCell id="znSg9ff7FZtxbK_ijgmJ-2" value="Lift phone up" style="whiteSpace=wrap;html=1;rounded=1;" vertex="1" parent="1">
          <mxGeometry x="220" y="200" width="120" height="60" as="geometry" />
        </mxCell>
        <mxCell id="znSg9ff7FZtxbK_ijgmJ-7" value="" style="edgeStyle=orthogonalEdgeStyle;rounded=0;orthogonalLoop=1;jettySize=auto;html=1;" edge="1" parent="1" source="znSg9ff7FZtxbK_ijgmJ-4" target="znSg9ff7FZtxbK_ijgmJ-6">
          <mxGeometry relative="1" as="geometry" />
        </mxCell>
        <mxCell id="znSg9ff7FZtxbK_ijgmJ-4" value="Put phone down" style="whiteSpace=wrap;html=1;rounded=1;" vertex="1" parent="1">
          <mxGeometry x="360" y="200" width="120" height="60" as="geometry" />
        </mxCell>
        <mxCell id="znSg9ff7FZtxbK_ijgmJ-6" value="Slide to release phone" style="whiteSpace=wrap;html=1;rounded=1;" vertex="1" parent="1">
          <mxGeometry x="500" y="200" width="120" height="60" as="geometry" />
        </mxCell>
      </root>
    </mxGraphModel>
  </diagram>
</mxfile>
